<?xml version="1.0" encoding="UTF-8"?><svg id="_레이어_2" xmlns="http://www.w3.org/2000/svg" viewBox="0 0 574.5 218.53"><defs><style>.cls-1{fill:#000;stroke-width:0px;}</style></defs><g id="_레이어_1-2"><path class="cls-1" d="M573.61,211.01c-3.77-3.91-5.21-8.62-7.06-13.35-.9-2.31-3.44-2.88-5.63-3.77-11.94-4.84-22.28-11.64-29.47-22.74-3.37-5.2-7.02-10.13-11.85-14.5-9.02-8.17-17.28-8.57-27.22-2.16-5.56,3.58-6.01,2.94-6.02-3.68-.06-25.52,1.32-51.05-.28-76.58-.19-3.1-.69-4.23-4.16-4.19-3.34.03-5.41.75-5.98,5.45-1.8-4.99-4.8-5.59-8.38-5.23-1.98.2-4,.12-5.99.02-2.94-.15-5.63-.17-6.02,3.79-.08.82-.39,2.13-1.72,2.08-1.68-.06-1.57-1.48-1.62-2.58-.1-2.51-1.3-3.4-3.82-3.32-4.33.15-8.67.09-12.99-.06-2.21-.08-3.43.64-3.79,2.88-.16,1.02.3,2.65-1.31,2.8-1.77.16-1.52-1.52-1.56-2.54-.22-5.14-4.46-3.06-6.81-3.38-2.62-.36-2.46,2.58-2.52,4.41-.17,5.8-.22,11.61-.17,17.41.1,10.32.15,10.32-10.33,10.53-.5.01-1.02.15-1.49.05-2.58-.55-3.24.78-3.15,3.02.14,3.81.21,7.63.32,11.44.04,1.59-.06,3.09-2.21,3.11-2,.02-1.84-1.46-1.9-2.79-.16-3.64-.3-7.29-.5-10.93-.11-2.02-.13-4.05-3.14-3.98-6.99.15-13.99.26-20.98.19-2.48-.02-3.56.91-4.06,3.27-.73,3.47-.33,6.94-.49,10.41-.09,1.87.63,4.13-2.73,4.06-3.09-.06-4.07-1.42-3.82-4.31.19-2.14-.18-4.34.1-6.46.6-4.64-1.22-6.8-5.97-6.68-1.51.04-4.1.53-3.97-1.77.22-4.04-1.56-8.49,2.58-11.98,2.92-2.46,1.87-6.28.99-9.35-.79-2.76-3.49-3.73-6.43-3.69-4.83.07-9.66.03-14.5.08-1.7.02-3.01-.1-4.18-1.85-2.42-3.63-5.9-5.39-10.53-5.16-8.51.42-13.56-7.54-9.99-15.47,3.95-8.77,9.54-16.72,12.98-25.76,2.71-7.12,3.31-14.19.04-21.25-2.45-5.29-7.1-6.37-11.91-3.07-1.62,1.11-2.46,3.14-4.5,3.72-5.53-9.16-7.78-9.34-15.79-1.59-2.37,2.29-3.19.04-4.26-1.64-2.86-4.51-7.69-4.73-10.98-.51-3.54,4.54-4.76,9.8-4.41,15.44.61,9.59,4.11,18.39,7.78,27.1,1.49,3.53,2.69,7.1,3.64,10.81,1.05,4.1-.9,7.53-2.16,11.02-.97,2.69-3.82.71-5.77,1.13-1.26.27-2.3.99-2.77,1.95-2.94,6.06-8.34,5.41-13.65,5.22-2.83-.1-5.66-.06-8.5-.03-1.5.02-3.28-.04-3.78,1.73-1.23,4.35-2.44,9.45.45,12.88,3.19,3.78.47,7.31,1.44,10.81.32,1.17-1.16,1.57-2.14,1.39-5.72-1.03-5.7,2.48-5.29,6.43.14,1.31-.07,2.67.09,3.98.41,3.39-2.03,3.73-4.36,4.09-3.09.48-2.47-2.04-2.66-3.63-.24-1.97-.31-3.99-.13-5.96.33-3.59-.89-5.13-4.76-4.94-5.82.29-11.66.08-17.49.13-7.72.06-7.6.08-7.69,7.67-.02,2.21,1.51,6.09-1.26,6.29-2.37.18-1.17-3.87-1.49-5.97-.72-4.71-1.33-9-7.86-7.85-2.59.45-2.78-1.29-2.97-3.36-.8-8.94-.65-17.89-.72-26.84-.01-1.45.67-4.08-1.99-3.49-2.38.53-6.02-1.37-7.03,2.85-.19.81-1.41,1.38-1.97.58-3.55-5.03-8.77-2.56-13.31-3.07-3.78-.42-6.71.47-6.6,5.15.02.87-.36,1.72-1.38,1.71-.96-.01-1.56-.84-1.48-1.68.54-5.79-3.41-5.29-7.17-5.23-3,.05-6-.03-9-.13-2.3-.08-3.88.47-3.96,3.19-.03,1.03.29,2.7-1.29,2.84-1.92.17-1.76-1.52-1.86-2.82-.38-4.67-4.02-3.55-6.76-3.54-3.6.02-1.85,3.01-1.86,4.49-.11,27.7-.36,55.41.18,83.11.14,7.31-2.51,10.54-8.82,13.24-4.59,1.97-6.41.79-8.65-2.87-9.25-15.11-22.97-25.09-38.62-32.77-2.27-1.11-4.69-1.67-7.17-2.04-2.94-.43-5.32.44-6.9,2.94-7.34,11.67-16.8,21.87-23.49,34-3.69,6.68-7.31,14.23-13.31,18.42-8.36,5.84-11.54,15.05-17.98,21.97-3.4,3.65-.73,8.19,4.45,8.48,1.83.1,3.67.04,5.5.04,84.44,0,168.88-.03,253.32,0,99.15.05,198.29.16,297.44.24,2.5,0,5.02.12,7.49-.2,3.64-.48,6.25-4.87,3.91-7.3ZM68.2,210.92c-.6.26-1.24.59-1.86.59-13.62.03-27.23.03-41.61.03,4.4-5.52,8.56-10.21,13.73-13.74,7.7-5.26,13.29-12.52,19.15-19.48,2.14-2.54,3.14-6.08,4.38-9.28.64-1.65,1.1-3.78-.98-4.88-2.16-1.15-3.4.52-4.42,2.08-4.28,6.57-10.32,10.44-18.84,11.94,1.85-3.17,3.4-5.95,5.06-8.66,5.44-8.88,11.06-17.64,16.3-26.63,2.33-3.99,5.01-4.07,8.69-2.34,6.29,2.97,11.53,7.21,15.93,12.52,2.12,2.56,4.06,5.27,6.27,7.74,2.39,2.68,3.68,5.32,1.86,8.92-1.44,2.85-.08,4.9,2.38,6.74,6.09,4.56,12,9.38,18.02,14.03,3.67,2.83,4.41,7.2,6.6,11.41-18.69-3.62-34.79,2.05-50.66,9ZM452.59,80.73c1.71.16,4.25-1.01,3.78,2.65-.33,2.59-.1,5.03-3.95,4.58-2.29-.27-4.66-.19-6.97-.02-3.11.22-4.7-.32-4.82-4.16-.12-4.24,2.5-2.87,4.48-3.06,1.32-.13,2.66-.02,3.99-.02v.02c1.16,0,2.33-.09,3.49.02ZM453.78,121.36c1.05.05,2.58-.45,2.79,1.22.14,1.09-.05,2.25-.97,3.18-2.28,2.31-12.81,4.37-15.47,2.83-2.05-1.18-.77-3.28-1.09-4.94-.33-1.74.7-2.36,2.29-2.36h6.97v.05c1.82,0,3.65-.07,5.47.03ZM423.98,152.65c-.08-1.62.53-2.57,2.11-2.21,2.07-.15,2.44.81,2.28,2.43-.16,1.57-.22,2.95-2.39,2.91-2.4-.04-1.92-1.73-1.99-3.13ZM428.38,147.79c-2.32.02-4.57.46-4.5-3.3.06-3.89,2.57-2.99,4.72-3.1.66-.04,1.32,0,2.38,0,1.82.99,6.14-2.22,6.1,3.31-.01,1.97-.51,3.16-2.74,3.09-1.98-.06-3.97-.01-5.95,0ZM423.85,124.82c-.07-1.61-.33-3.49,2.26-3.47,1.49.01,3.13-.42,4.44.07,2.03.75,5.64-2.68,6.08,2.9.45,5.75-2.99,4.36-5.12,4.45-2.36,0-3.85.01-5.34,0-2.95-.03-2.25-2.27-2.32-3.94ZM434.92,89.66c2.33,0,4.66.09,6.98-.02,2.59-.12,4.39.11,4.44,3.54.05,3.33-1.43,3.9-4.2,3.73-2.32-.15-4.66-.12-6.98-.01-2.63.12-4.69-.18-4.22-3.63.13-.93.08-2.25-1.27-2.22-1.24.03-1.37,1.23-1.39,2.25-.03,1.67.23,3.54-2.37,3.35-2.65-.2-1.75-2.29-1.95-3.77-.29-2.27.54-3.36,3.03-3.2,2.64.17,5.29.04,7.94.04,0-.02,0-.03,0-.05ZM431.74,112.5c-.77-4.21,2.29-2.89,4.29-3.13.66-.08,1.33-.01,2.44-.01,2.27.81,6.92-2.38,6.83,4.18-.06,4.34-1.15,6.15-5.58,5.41-1.13-.19-2.34-.17-3.49-.02-5.82.78-3.95-3.54-4.48-6.43ZM428.7,98.88c.82.08,1.66.01,2.49.01,6.74-.18,6.6-.2,5.41,5.82-.33,1.69-.8,2.29-2.42,2.23-1.83-.06-3.66.02-5.48-.01-2.38-.04-4.95.75-5-3.4-.05-3.91,1.54-4.99,5-4.65ZM445.06,130.93c3.87-.24,5.16.93,4.31,5.02-.51,2.45-1.42,2.95-3.52,2.85-1.83-.09-3.66-.02-5.5-.02-1.5,0-3,0-4.5,0-2.19,0-4.33.36-4.09-3.19.2-3.01.43-5.14,4.31-4.75,2.97.3,6,.27,8.98.08ZM426.38,138.81c-2.96-.05-2.43-2.05-2.47-3.76-.05-1.95-.42-4.08,2.75-4.03,2.9.05,2.51,1.94,2.42,3.77-.04,1.88.55,4.07-2.7,4.02ZM432.97,150.37c3.32.09,6.64.1,9.95.02,2.05-.05,2.94.67,3.03,2.83.11,2.51-1.38,2.59-3.15,2.58-1.49-.01-2.99,0-4.9,0-1.97-1.11-5.73,2.26-7.07-2.34-.59-2.01-.33-3.16,2.13-3.09ZM444.43,147.92c-2.05-.74-5.32,1.45-5.2-3.17.11-4.5,3.13-3.25,5.49-3.33,2.52-.09,5.5-.81,5.38,3.5-.13,4.89-3.87,1.93-5.67,3ZM447.13,104.09c0,4.31-3.36,2.67-5.5,2.82-3.55.24-2.33-2.22-2.01-4.72-1.13-3.54,1.43-3.5,4.43-3.43,4.22.1,3.08,3.03,3.08,5.33ZM436.15,72.82c3.48,0,6.96.02,10.44-.04,1.78-.03,2.79.45,2.66,2.51-.11,1.8-.72,2.78-2.65,2.72-1.82-.06-3.65-.01-5.47-.01-1.66-.01-3.32-.03-4.97,0-1.8.02-2.15-1.07-2.14-2.58,0-1.5.32-2.6,2.13-2.59ZM428.87,80.71c.81-.14,1.65-.02,2.48-.02v.02c1.16,0,2.34-.15,3.48.04,1.44.23,4.04-1.16,3.43,2.33-.39,2.25.73,5.28-3.5,4.78-1.96-.23-3.98-.08-5.96-.05-2.84.05-5.16-.07-5.14-4.06.02-4.48,3.13-2.68,5.21-3.03ZM426.18,109.46c4.31-.19,2.31,3.34,2.98,5.13-.2,1.92.92,4.22-2.44,4.35-3.54.14-3.11-2.26-2.89-4.25.22-1.91-1.59-5.05,2.35-5.23ZM408.19,111.71c.17-5.86,2.66-7.55,8.33-5.94,1.48.42,1.73,1.28,1.74,2.49.01,1.81,0,3.61,0,5.42h-.1c0,1.15.1,2.31-.02,3.45-.17,1.54.7,3.74-1.16,4.42-2.46.9-5.22.7-7.79.07-1.13-.28-1-1.56-1.01-2.52-.03-2.46-.05-4.93.02-7.39ZM414.64,140.8c-2.79.05-3.81-.88-3.79-3.72.03-2.62.95-3.45,3.52-3.45,2.74,0,4.16.84,3.72,3.74.41,2.7-.95,3.38-3.45,3.42ZM414.51,142.65c1.28.01,2.94-.22,3.12,1.6.2,2.08.7,4.4-.71,6.16-.99,1.23-2.47.27-3.61-.35-3.96-2.16-8.77-2.85-12.6-7.43,5.24,0,9.52-.02,13.8.01ZM399.01,140.69c-1.52-.32-4.05,1.11-4.11-1.97-.06-2.75,1.01-4.85,4.15-5.06,1.64-.11,3.3-.09,4.95-.02,2.02.08,4.39-.62,4.22,3.01-.14,3.04-.98,4.6-4.26,4.09-.81-.12-1.65-.02-2.47-.02-.83,0-1.68.13-2.47-.03ZM375.96,111.98q.12-6.31,6.66-6.31c1,0,1.99,0,2.99,0,12.54,0,12.45,0,11.71,12.52-.18,3.03-1.32,4.08-4.24,3.87-2.31-.17-4.64-.03-6.97-.03q-10.34.08-10.15-10.04ZM373.33,124.26c7.3-.96,14.58-.21,21.87-.21,6.3,0,12.61.11,18.9-.05,3.22-.08,3.81,1.44,3.88,4.23.08,2.91-1.05,3.73-3.78,3.62-4.14-.17-8.31-.24-12.45,0-3.2.19-5.41-.3-5.62-4.07-.05-1,.1-2.76-1.58-2.55-1.38.18-1.32,1.74-1.24,2.87.14,2.06-.57,3.21-2.79,2.93-5.51-.71-10.93.33-16.38.7-1.61.11-3.69.43-3.31-2.24.27-1.92-1.48-4.71,2.5-5.23ZM371.26,136.11c.07,4.49-2.68,5.03-6.24,4.62-2.25-.26-5.03,1-5.07-3.31-.05-5.3,3.62-3.42,6.43-3.89,1.47.9,4.82-1.69,4.89,2.58ZM363.59,150.71c-4.49-.14-9-.03-13.49.13-2.54.09-3.7-.7-3.35-3.42.31-2.35-.6-5.27,3.58-4.84,2.31.24,4.66.04,6.99.04,2,0,4,.02,6,0,2.43-.04,4.67-.25,4.43,3.48-.19,2.92-.68,4.73-4.16,4.62ZM366.68,153.15c-1.7,2.07-3.81,2.29-5.49,3.24-.9.51-1.98.75-2.19-.79-.16-1.19-.19-2.42,1.56-2.44,1.82-.02,3.63,0,6.11,0ZM336.24,157.11c-2.31-.19-4.64-.03-6.97-.03v-.04c-1.83,0-3.66-.13-5.48.03-3.11.27-4.47-.75-4.46-4.12.01-3.32,1.55-3.78,4.31-3.71,4.14.1,8.3-.02,12.44-.24,2.31-.12,4.22.03,3.56,2.99-.45,2.06.94,5.48-3.42,5.13ZM339.45,162.21c-.38,3.33-3.57,2.75-5.74,3.36-1.84.52-2.6-.46-2.61-2.43-.01-3.58,2.21-3.92,4.85-3.69,2.5-.64,3.75.6,3.5,2.76ZM327.26,162.3c-.07,2.9-1.22,3.84-3.79,3.43-2.19.19-4.01.25-4.07-2.78-.06-2.98,1.38-3.67,3.95-3.47,1.91.15,3.98-.45,3.91,2.82ZM309.32,143.75c7.73.3,7.89.33,7.79,8.32-.06,4.72.8,9.59-1.17,14.18-1.38-3.76-1.46-7.75-.59-11.32,1.45-5.95.36-9.8-6.03-11.18ZM309.37,141.69c-1.43-.13-4.03.86-3.88-1.59.14-2.21,2.66-1.26,4.16-1.36,2.32-.15,4.65-.04,6.98-.04,2.16,0,4.33-.08,6.49.03,1.82.09,4.4-.74,4.26,2.53-.06,1.48.91,4-1.46,4.01-1.94.01-5.17,2.44-5.98-1.68-.33-1.67-1.47-1.54-2.59-1.59-2.66-.12-5.33-.07-7.97-.32ZM265,152.58c-.32-2.9.85-3.7,3.71-3.38,2.95.33,5.98.07,8.97.07,0-.04,0-.08,0-.12,2.33,0,4.65.05,6.98,0,5.63-.14,5.98.3,5.3,5.73-.26,2.1-1.15,2.79-3.21,2.76-6.15-.09-12.3-.17-18.45.01-4.26.13-3.05-2.8-3.31-5.07ZM251.16,142.92c-4.13.99-4.1-1.66-4.37-5.01-.42-5.16,3.16-3.21,5.47-3.62,3.89-.69,4.56,1.32,4.71,4.75.21,4.67-2.73,3.91-5.81,3.87ZM255.95,148.31c.09,4.48-1.7,5.98-5.63,5.2-2.74.3-4.64.47-4.56-3.27.08-3.71.83-5.73,4.92-5.01,2.1.37,5.18-1.41,5.27,3.08ZM325.99,112.28c-.02-1.99,1.42-1.82,2.71-1.89,1.8-.1,2.79.65,2.64,2.46.04,2.01-1.3,2-2.66,2.04-1.85.07-2.67-.79-2.68-2.61ZM328.11,121.87c.03,1.68-1.15,1.75-2.35,1.75-1.36,0-2.75-.03-2.72-1.94.02-1.56,1.09-1.83,2.35-1.82,1.41,0,2.67.2,2.73,2.02ZM330.95,106.58c-2.18.52-4.95,1.46-6.77-.98-.85-1.14-1.2-2.63-2.19-4.93,2.65,0,4.63-.18,6.55.06,1.57.2,4.14-1.22,4.45,1.27.18,1.38-.17,4.13-2.05,4.58ZM320.73,98.12c-2.31,0-4.62,0-6.93,0v-.15c-2.47,0-4.95.03-7.42-.01-1.21-.02-2.31-.27-2.27-1.89.04-1.56,1.09-1.92,2.32-1.93,4.78-.04,9.57-.03,14.36-.02,1.52,0,2.52.53,2.4,2.31-.11,1.65-1.25,1.69-2.45,1.69ZM306.9,100.82c1.56.16,4.4-1.13,4.42,1.2.01,2.24-.89,5.4-4.71,4.9-.97-.13-1.97-.02-4.19-.02-.24-.02-1.86.23-3.15-.29-1.92-.79-1.83-3.14-1.93-4.67-.12-1.8,2.02-.95,3.16-1.05,2.13-.18,4.29-.29,6.41-.07ZM303.13,115.77c-2.36.3-4.04-.09-3.98-2.96.06-3.47,2.69-2.31,4.35-2.29,1.47.02,3.97-1.27,4.17,1.8.22,3.37-2.12,3.59-4.54,3.45ZM301.18,96.59c-.14,1.37-1.28,1.31-2.23,1.33-2.15.05-4.3.02-6.45.02,0,0,0-.01,0-.02-2.15,0-4.3.03-6.45-.01-1.06-.02-1.94-.35-1.89-1.69.04-1.18.65-1.93,1.79-1.95,4.46-.08,8.93-.11,13.39-.05,1.42.02,2,1.04,1.86,2.38ZM290.53,101.11c-8.15,8.22-10.85,8.15-15.36,0,4.97-.47,9.77-.41,15.36,0ZM267.66,135.77c-1.85.02-2.72-.6-2.65-2.57.09-2.42,1.64-1.86,3.13-1.83,2.98.07,5.96.02,8.94.02v-.04c3.15,0,6.29-.01,9.44,0,1.43,0,2.59.26,2.57,2.15-.02,1.81-1.04,2.23-2.54,2.23-6.29,0-12.59-.02-18.88.03ZM278.11,142.09c.22,5.1-3.15,4.44-7.15,4.34-1.88-.12-5.19,1.28-5.16-3.86.03-4.85,3.19-3.97,5.71-3.68,2.39.27,6.37-2.23,6.6,3.19ZM281.72,110.57c1.93-.16,2.4.93,2.45,2.68.06,2.21-1.02,2.75-3,2.68-2.21-.08-1.98-1.6-2.16-3.04-.28-2.19,1.04-2.4,2.71-2.31ZM278.15,97.92c-3.32.03-6.65.01-9.97.01,0,.02,0,.03,0,.05-3.16,0-6.31.03-9.47-.02-.97-.01-2.19-.01-2.15-1.4.03-1.03.68-2.08,1.78-2.09,6.8-.07,13.6-.05,20.41.01.95,0,1.29.89,1.33,1.8.07,1.39-.89,1.63-1.92,1.64ZM258.75,100.78c3.56.03,7.13,0,11.03,0-2.95,4.09-5.68,7.22-10.98,6.17-2.27-.45-2.53-1.57-2.56-3.36-.02-1.75.54-2.84,2.51-2.82ZM289.72,144.58c.23,4.01-3.01,1.77-4.66,1.99-1.37.18-4.02.6-3.62-1.89.33-2.04-.9-5.48,2.94-5.81,2.46-.21,4.95-.04,7.43-.04,0-.05,0-.09,0-.14,1.98,0,3.97-.07,5.95.03,1.2.06,3.15-.49,3.2,1.33.06,2.27-2.1,1.49-3.42,1.62-1.47.14-2.97.05-4.46.05-1.93,0-3.52,0-3.36,2.87ZM296.24,135.87c-1.53,0-3-.03-3.09-2.23-.11-2.67,1.76-2.34,3.36-2.37,2.82-.06,5.65-.02,8.48-.02,0-.15,0-.3,0-.45,2.66,0,5.32.07,7.98-.02,1.89-.07,2.6.73,2.82,2.57.26,2.18-.87,2.53-2.58,2.53-5.65,0-11.31.01-16.96,0ZM334.74,145.68c-2.52.17-4.97.43-4.82-3.82.15-4.36,3.11-3.03,5.28-3.11,2.31-.08,5.06-.9,5.1,3.32.05,4.42-2.73,3.63-5.56,3.61ZM338.02,135.85c-2.82-.05-5.65-.01-8.47-.01v.03c-2.49,0-4.98.07-7.47-.03-1.14-.05-3.04.54-2.64-1.74.26-1.47-.1-3.47,2.51-3.45,5.48.04,10.96-.03,16.44-.09,1.71-.02,2.37.7,2.19,2.41-.17,1.63-.5,2.92-2.56,2.88ZM337.89,98.81c0-.12,0-.24,0-.36-2.64,0-5.29.06-7.93-.03-1.02-.03-2.61.26-2.36-1.54.14-1.04.19-2.72,1.59-2.77,6.26-.22,12.53-.26,18.8-.28,1,0,1.43.87,1.17,1.76-.5,1.65-1.61,3.02-3.36,3.16-2.62.22-5.27.06-7.91.06ZM346.67,100.09c2.73-.12,2.63,1.87,2.53,4-.26,1.06.7,3.25-1.54,3.29-3.47.05-2.47-3.39-3.34-5.25-.92-1.96,1.16-1.99,2.34-2.04ZM346.27,157.49c-.73-3.89,1.23-5.01,5.76-3.92.87.39,4.5-2.15,4.21,2.51-.15,2.32-4.91,5.27-8.42,5.09-2.92-.15-1.3-2.39-1.54-3.68ZM346.86,137.64c-.12-4.46,2.56-4.1,5.42-4.03,2.54.06,5.23-.74,5.15,3.69-.08,4.56-3.04,3.19-5.48,3.45-1.99-.4-4.97,1.28-5.08-3.11ZM366.39,124.66c2.79.72,1.5,3.27,1.71,5.06.23,1.92-1.27,2.01-2.64,2.03-2.66.02-5.31,0-7.97,0v.02c-1.83,0-3.68.2-5.47-.06-1.7-.25-4.44,1.34-4.81-1.76-.33-2.74,1.29-5.08,3.88-5.63,5.06-1.08,10.25-.96,15.3.33ZM354.68,108.53c.02-2.11.92-2.88,3-2.92,2.27-.03,2.86,1.1,2.8,3.05-.05,1.81-.01,3.63-.01,5.44h-.03c0,1.32.12,2.66-.03,3.96-.16,1.32.95,3.3-1.17,3.77-1.89.42-4.17.89-5.75-.39-1.21-.98-.27-2.79.25-4.11,1.11-2.87.91-5.85.94-8.81ZM309.96,12.65c1.36-1.16,2.3-2.81,3.42-4.25,1.35-1.73,2.9-3.76,5.16-3.46,2.56.34,3.35,2.98,4.14,5.15,1.53,4.19,1.47,8.51.23,12.69-1.8,6.07-5.04,11.42-9.09,17-.46-.89-.64-1.08-.6-1.17,3.6-7.57-.18-13.72-4.05-19.7-1.66-2.57-1.52-4.29.79-6.25ZM299.26,5.04c1.45-.39,2.97-.7,3.91,1.03.83,1.53.15,2.47-1.21,3.18-1.86.98-.97,2.39-.76,3.85.16,1.13.37,2.95-1.76,2.74-1.41-.14-1.86-1.12-1.56-2.52.38-1.83.11-3.61-.59-5.2-.27-1.72.52-2.7,1.96-3.09ZM302.59,20.03c1.94.64,2.56,1.79,3.03,3.46.39,1.38.1,2.4-1.36,2.6-1.81.25-3.44,2.55-5.47.58-.48-.46-.91-.96-1.38-1.42-1.16-1.13-2.59-2.03-3.81-.47-1,1.28.1,2.65,1.19,3.36,2.04,1.32,3.42,3.62,6.18,3.92,3.39.37,2.58,2.15.63,5.21.14-3.59-1.17-5.47-2.93-3.3-2.3,2.84-5.39,3.42-7.11,1.69-2.45-2.48-3.57-6.38-1.89-10.11,3.19-7.05,5.61-7.92,12.93-5.51ZM291.33,50.68c-.29-3.09-.02-5.89,3.69-7.51.81,8.23,1.33,16.23,1.1,24.28-.03,1.17,0,2.46-1.66,2.51-1.64.05-3.47.56-4.82-.56-1.16-.95.16-2.09.4-3.15,1.14-5.13,1.79-10.31,1.3-15.57ZM277.86,12.79c.25-1.3.54-2.58.85-3.87.65-2.72,3.15-3.38,5.23-4.07,2.35-.78,2.84,1.73,3.83,3.12.96,1.34,1.72,2.82,2.61,4.22,1.65,2.61,1.76,4.45-.92,7.03-5.49,5.29-5.67,11.02-1.48,17.39,2.25,3.43.2,6.55-.69,9.87-5.26-10.73-11.9-20.97-9.43-33.68ZM281.28,72.11c13.27,1.32,26.56,1.15,39.84,0,.83-.07,1.66-.14,2.49-.22,2.09-.2,4.04.64,4.17,2.63.19,2.75-2.43,1.55-3.7,1.56-15.77.11-31.55.07-47.77.07.89-3.51,2.25-4.3,4.97-4.03ZM250.48,84.13c.07-3.16,1.24-4.25,4.48-4.24,31.63.04,63.26-.02,94.9-.17,2.96-.01,3.65,1.12,3.67,3.79.02,2.72-.72,3.72-3.68,3.7-15.98-.15-31.96-.07-47.95-.07v-.09c-15.65,0-31.3.03-46.95-.03-1.95,0-4.55.81-4.47-2.87ZM248.13,106.54c3.76-.38,1.95,3.71,2.75,5.71.71,1.78.53,3.9.86,5.85.29,1.72.14,2.92-2.04,2.97-1.78.05-2.81-.46-2.89-2.44-.07-1.97-.37-3.94-.59-6.05.81-1.97-1.66-5.69,1.91-6.05ZM233.92,128.64c.2-3.25.69-5.35,4.72-5.03,3.78.3,7.65.44,11.39-.03,5.23-.65,5.46,2.3,5.58,6.13.06,2.05-.86,2.15-2.27,2.15-2.81.01-5.62,0-8.43,0v-.06c-2.15,0-4.3.05-6.45-.01-2.15-.07-4.78.82-4.54-3.16ZM232.47,170.24c.21-1.81-.21-4.15,2.93-4.12,5.63.06,11.26.02,16.88-.1,2.55-.05,2.92,1.32,2.99,3.42.07,2.16-.79,2.99-2.86,2.96-2.98-.04-5.96-.01-8.94-.01v-.07c-2.65,0-5.3.06-7.95-.02-1.39-.04-3.33.32-3.06-2.06ZM214.41,105.7c4.43.47,8.93.44,13.4.48,2.6.02,3.23,1.22,3.37,3.65.65,11.28.73,11.27-10.81,11.3-10.17.02-9.93,0-11.08-9.94-.52-4.47.58-5.97,5.12-5.49ZM211.63,123.64c2.63.18,5.29.04,7.94.04,2.32,0,4.64.15,6.94-.05,3.26-.27,4.72.63,4.71,4.29,0,3.6-1.66,4.01-4.54,3.93-4.96-.13-9.93-.2-14.88.03-3.48.16-3.54-1.76-3.59-4.31-.06-2.54.34-4.15,3.42-3.93ZM206.23,153.33c-3.49-.05-6.97-.23-10.46-.41-3.07-.16-2.97-1.83-2.93-3.93.03-2.07-.12-4.12,3.02-3.78,1.48.16,3,.02,4.49,0,7.87-.12,6.3,3.41,5.89,8.12ZM215.6,156.18c4.11-.12,2.19,3.7,2.65,5.75.6,2.6-1.79,1.78-3,1.79-8.01.07-16.36.98-21.62-8.36,7.52.11,14.72,1.03,21.96.82ZM208.21,153.33c.87-4.54-1.58-8.78,7.03-8.12,3.36.26,2.45,2.99,2.78,4.93.37,2.18-.71,2.79-2.81,2.95-2.56.2-4.45.25-7,.24ZM209.08,167.3c.43-1.54,1.8-1.22,2.89-1.25,2.5-.06,4.99-.02,7.49-.02,2.5,0,5,.12,7.49-.02,2.89-.17,3.06,1.56,3.26,3.76.25,2.67-1.41,2.55-3.12,2.56-4.16.02-8.32,0-12.48.02-1.77,0-3.22-.63-4.41-1.94-.82-.9-1.47-1.84-1.12-3.1ZM214.23,134.43c1.12.03,3.9-.77,3.02,1.5-.89,2.32,2.15,6.51-3.03,7-3.3.31-6.58-1-9.52,0-2.51,0-4.68-.1-6.83.02-3.1.17-5.29.07-5.27-4.24.01-4.18,1.93-4.5,5.19-4.39,5.48.17,10.96-.03,16.44.11ZM206.07,128.1c-.05,4.91-3.08,3.49-5.58,3.72-.49.04-.99,0-1.86,0-1.61-1.02-5.28,2.09-5.84-2.5-.45-3.67-.19-6.69,4.89-5.69.95.19,1.97.09,2.96.02,3.22-.23,5.49-.17,5.44,4.44ZM192.82,109.35c0-2.33.48-3.66,3.27-3.65,2.8,0,3.35,1.39,3.24,3.69-.06,1.31-.01,2.63-.01,3.94h.03c0,1.8.06,3.61-.01,5.41-.11,2.71-2.17,2.35-3.97,2.4-2.04.06-3.09-.82-2.96-2.93.17-2.95.43-5.9.42-8.85ZM172.05,118.08c-3.47-.18-1.57-2.94-2.21-4.5.52-1.67-1.1-4.39,2.26-4.55,3.53-.17,2.79,2.56,2.79,4.56,0,2,.71,4.67-2.84,4.49ZM165.07,136.02c-.09-1.11-.73-3.28,1.04-3.16,2.67.18,1.12,2.85,1.74,4.17-.08,1.36.61,3.33-1.4,3.06-2.33-.31-1.25-2.63-1.38-4.07ZM162.38,126.17c-1.94-3.99-6.76-3.99-9.61.02-1.61,2.26-3.25,3.46-5.66,2.5-2.13-.85-.78-3.2-1.16-4.84-.44-1.95.67-2.63,2.52-2.63,8.28.03,16.56.01,25.54.01-.73,1.55-1.21,2.4-1.53,3.29-.58,1.6.95,4.48-2.44,4.34-2.75-.11-5.77,1.19-7.66-2.69ZM155.03,145.11c-2.11,1.41-3.72,2.49-5.33,3.57-1.24.83-2.82,1.95-4,.93-1.4-1.22-.9-3.45-.67-5.1.23-1.68,2.15-.9,3.3-.9,2.1-.01,4.26.04,6.7,1.51ZM136.78,110.53c-2.35,1.32-1.62,3.54-1.56,5.34.11,2.91-1.96,2.72-3.19,1.92-2.1-1.37-.82-3.91-1.02-5.93-.14-1.34.01-2.92,1.87-2.84,6.44.28,12.87-.75,19.34.62,4.22.89,2.79,3.73,2.97,6.08.27,3.52-2.53,2.18-4.21,2.39-1.64.2-3.32.06-4.98.06-4.49,0-10.12,1.42-8.28-6.56.06-.26-.59-.68-.95-1.07ZM171.87,95.61c-3.86-.23-1.99-3.43-2.56-5.36-.54-1.83.03-2.73,2.1-2.8,3.01-.1,3.11,1.76,2.87,4.57-.19,1.08.93,3.78-2.41,3.58ZM171.2,102.24c.11,2.04.53,4.1-2.68,3.93-3.84-.2-2.99-3.24-3.43-5.38-.53-2.54,1.46-2.19,3.1-2.4,3.47-.46,3.2,1.73,3.02,3.85ZM166.91,115.7c.85,3.89-2.8,1.77-4.35,2.54-1.89-.57-4.68,1.3-4.71-3.05-.04-4.63,2.42-5.73,5.96-5.81,5-.12,2.64,4.18,3.1,6.32ZM165.8,95.08c-1.81-.12-1.68-1.38-2.12-2.19-1.33-2.44-2.95-4.42-6.11-4.31-2.84.1-4.48,1.72-5.73,4.1-1.37,2.61-12.06,4.6-14.24,2.56-1.73-1.62-1.08-4.08-1.07-6.13.01-2.23,2.16-1.59,3.49-1.59,6.48-.03,12.96.11,19.44.1,7.72,0,7.37-1.91,6.32,7.46ZM172.86,132.62c2.57.03,1.61,2.32,2.01,3.49-.21,1.9.5,4.16-2.39,4.11-2.39-.04-1.88-1.93-1.66-3.24.27-1.6-1.44-4.4,2.04-4.36ZM165.43,71.71c1.98.02,3.97.12,5.94-.05,2.31-.2,3.27.7,3.39,2.98.15,2.78-1.82,2.16-3.35,2.28-.82.06-1.65.01-2.47.01,0,0,0-.02,0-.03-1.15,0-2.31,0-3.46,0-2,0-2.4-1.22-2.46-2.91-.06-1.78.85-2.29,2.42-2.28ZM160.72,79.4v-.1c2.99,0,5.99-.14,8.96.08,1.07.08,3.55-1.17,2.95,1.74-.33,1.58-.03,3.72-2.93,3.64-6.47-.18-12.95-.13-19.42-.12-1.86,0-2.62-.69-2.64-2.65-.02-2.01.8-2.62,2.64-2.59,3.48.05,6.96.01,10.45.01ZM142.7,71.74c1.66-.02,3.31,0,4.97,0v-.02c1.66,0,3.32,0,4.97,0,1.45,0,2.63.23,2.53,2.14-.09,1.61-.29,3.04-2.36,3.02-3.48-.03-6.96-.1-10.44-.16-2-.03-2.4-1.24-2.37-2.96.03-1.94,1.33-2,2.7-2.01ZM131.03,81.69c.29-4.07,4.44-1.65,6.85-2.13,1.27-.26,2.63-.03,3.96-.07,1.87-.06,3.19.32,3.23,2.63.04,2.52-1.66,2.45-3.34,2.49-1.32.04-2.65,0-4.31,0-1.83-1.33-6.76,2.3-6.39-2.93ZM132.4,87.76c2.99-.16,1.53,2.55,2.1,3.93-.21,1.55.57,3.83-1.91,3.76-2.46-.06-1.7-2.4-1.69-3.82.01-1.4-1-3.74,1.51-3.87ZM134.87,98.29c1.48-.05,2.98.13,4.44-.04,3.5-.4,4.79.73,4.91,4.53.14,4.36-2.55,3.21-4.78,3.38-.65.05-1.32,0-2.35,0-1.72-.6-4.45,1.26-5.98-1.19-1.89-3.03.22-6.58,3.75-6.7ZM130.82,125c.35-3.06,1.23-4.12,4.14-3.82,1.15.12,2.35.17,3.48,0,3.81-.58,4.66,1.24,4.91,4.73.3,4.29-2.6,2.74-4.53,3.08-.64.11-1.33.02-2.48.02-2.66.42-6.19,1.92-5.52-4ZM132.25,132.44c3.29-.45,1.53,2.81,1.99,4.44.26.92,0,2.22,1.34,2.24.83,0,1.47-.96,1.31-1.81-1.1-5.9,3.02-4.87,6.4-4.85,1,0,2,.05,2.99,0,2.27-.11,4.39-.17,4.3,3.1-.08,2.88-1.11,4.81-4.26,4.94-2.16.08-4.32.02-6.48.02v-.08c-1.99,0-3.99-.1-5.97.03-2.19.15-3.16-.81-2.87-2.88.26-1.8-1.15-4.81,1.24-5.13ZM130.87,147.61c-.03-3.36,1.27-4.81,4.31-3.98,2.44.66,6.79-2.77,7.09,3.05.31,5.9-4.33,2.71-6.28,3.73-2.5,0-5.08,1.3-5.12-2.8ZM212.77,206.09c-12.58,8.37-26.89,5.1-40.6,5.3-3.28.05-5.74-3.59-9.24-4.37-9.7-2.16-17.4-7.99-25.17-13.74-2.23-1.65-2.28-2.74-.29-4.56,3.13-2.86,6.79-4.73,10.6-6.42,4.61-2.04,8.97-4.2,10.52-9.72.7-2.48,2.95-3.92,5.68-4.26,2.38-.29,4.4-1.21,4.1-3.96-.33-3-2.82-3.49-5.27-3.3-3.78.3-7.55.87-12.76,1.51,4.31-3.87,4.34-8.94,8.49-11.81,6.86-4.74,13.31-1.52,18.59,1.86,5.61,3.59,11.24,7.73,15.52,13.14.58.73,1.57,1.31,1.34,2.6-1.7.97-3.51,0-5.26.13-2.18.17-3.94.89-4.61,3.1-.62,2.04.47,3.54,2.01,4.7,3.1,2.33,6.7,3.64,10.31,4.92,5.51,1.95,10.81,4.29,15.55,7.78,2,1.48,2.18,2.42-.22,3.88-2.55,1.54-6.63,2.96-5.21,6.81,1.57,4.22,5.67,2.08,8.8,1.84,2.96-.22,5.9-.95,9.45-.01-3.59,4.34-8.69,2.14-12.35,4.58ZM225.5,180.87c-1.93,0-3.71.04-3.46-2.82.18-2.11.65-3.46,3.14-3.42,4.99.08,9.98.03,14.97.02,1.75,0,2.93.43,2.58,2.58-.29,1.74.15,3.81-2.75,3.66-2.49-.13-4.99-.03-7.49-.03-2.33.01-4.66.01-6.99.02ZM251.74,190.63c-6.07.67-11.28-2.1-16.79-3.66-.98-.28-1.96-.91-1.65-2.09.31-1.18,1.52-1.08,2.49-1.09,2.81-.04,5.62-.01,8.43-.01,2.48-.01,4.96.05,7.44-.03,2.39-.08,3.64.57,3.55,3.33-.08,2.51-.96,3.29-3.47,3.56ZM251.17,181.11c-2.1-1.1-5.88,1.65-5.97-3.11-.09-5.27,3.96-3.14,6.44-3.37,2.23-.21,5.21-1.03,5.18,3.12-.03,4.76-3.66,2.4-5.65,3.36ZM250.56,163.79c-1.21-1.28-4.9,2.34-4.96-2.73-.08-6.34,4.41-4.29,7.6-4.67,2.24-.27,3.89-.36,4,3.11.16,5.42-3.36,4.12-6.64,4.3ZM259.93,116.64c-1.87.02-3.65-.04-3.48-2.81.17-2.72,1.26-3.96,3.7-3.25,2.52-.21,4.16-.02,4.11,2.92-.05,3.28-2.2,3.12-4.34,3.14ZM268.5,160.45c1.65-.07,3.32.12,4.96-.04,2.93-.28,3.62,1.21,3.72,3.8.13,3.08-1.81,3-3.87,3.02-.83,0-1.65,0-2.8,0-1.5-.41-3.78,1.03-5.16-1.06-1.64-2.48.11-5.59,3.15-5.72ZM273.56,186.11c-1.36.57-2.84.87-4.18,1.48-3.5,1.6-4.95.61-4.29-3.29.29-1.5-.91-3.99,1.9-4.17,2.89-.18,6.27-1.21,8.54.74.99.86.58,4.18-1.97,5.23ZM289.71,180.71c-2.4.79-5.01,1.66-7.64,2.5-1.38.44-2.62.49-2.94-1.38-.31-1.81,1.02-1.75,2.14-1.81,2.77-.15,5.54-.23,8.31-.33.14,0,.37.11.4.22.04.12-.09.3-.28.79ZM286.4,176.62c-2.99-.14-5.99-.03-8.99-.03-2.83-.01-5.66-.04-8.49,0-2.12.03-3.91.05-3.92-2.99,0-2.77,1.23-3.34,3.64-3.3,5.99.09,11.99.11,17.98,0,2.24-.04,3.35.5,3.38,2.98.03,2.66-1.1,3.48-3.6,3.36ZM284.05,167.1c-1.56.19-4.07,1.22-4.12-2.39-.05-3.99,1.82-4.82,4.97-4.23,2.71-.14,5.41-.68,5.35,3.28-.08,4.78-3.83,3.06-6.2,3.35ZM291.64,163.14c.04-4.46.52-8.95.18-13.38-.39-4.98,1.79-5.94,6.15-5.35,3.75.51,7.57.5,11.27-.67-2.08,2.34-4.78,1.63-7.4,1.53-6.26-.23-6.72.3-7.34,6.35-.48,4.68.12,9.48-1.13,14.09-2.2-.13-1.73-1.56-1.72-2.57ZM292.28,171.01c.25-.93,1.12-1.17,1.97-1.18,3.48-.03,6.97-.01,10.45-.01,0-.15,0-.3,0-.46,2.99,0,5.97,0,8.96,0,1,0,2.06-.06,2.31,1.25.28,1.42-.56,2.41-1.77,2.54-6.94.75-13.89.76-20.8-.28-.93-.14-1.37-.95-1.12-1.86ZM423.25,190.82c-2.16-.01-4.34-.04-6.48.17-2.02.2-4.57.77-4.82,2.9-.84,7.41-7.04,7.81-12.09,9.7-2.32.87-4.82,1.27-7.19,2.03-1.25.4-3.12.84-3.47,1.74-2.22,5.76-7.05,4.09-11.22,4.19-4.33.1-8.66.06-12.99.02-4.18-.04-8.58.94-11.53-3.61-.73-1.12-2.94-1.74-4.51-1.81-11.12-.5-21.75-3.43-32.47-6.04-4.22-1.03-8.62-.66-12.94-.31-1.23.1-2.29.13-2.92-1.21-.66-1.4.18-2.12,1.05-2.95,2.2-2.1,4.4-3.49,7.82-3.53,11.31-.16,22.62-.65,32.5-7.43,6.05-4.15,12.92-1.87,19.46-1.85,2.72,0,5.88.81,6.37-2.79.48-3.53-2.81-3.79-5.39-4.55-8.91-2.64-17.73-.62-26.63.55-.07-2.65.75-4.29,3.31-4.94,18.2-4.61,34.71-13.34,51.63-21.08,4.13-1.89,6.75-1.97,8.63,3.37,1.42,4.03,5.59,6.8,8.08,10.57,2.23,3.39,1.34,4.95-1.9,6.4-3.23,1.44-6.46,2.63-10.09,2.32-2.21-.19-4.63-.21-5.28,2.51-.71,2.97,1.67,4.03,3.85,4.97,6.12,2.64,12.21,3.7,18.89,1.5,7.61-2.51,9.65-1.1,12.35,6.19.86,2.33.25,2.99-2,2.98ZM437.19,165.18c-1.12.87-2.6.2-3.74-.49-2.8-1.68-5.54-3.46-8.3-5.2l.28-1.44c3.25,0,6.5,0,9.75,0,1.67,0,2.38.95,2.37,2.49-.01,1.57,1.23,3.4-.36,4.63ZM445.13,165.47c-1.7-.26-4.98,2.2-4.87-2.48.09-3.7,1.08-5.58,5.1-4.88,1.13.2,2.32.03,3.48.03,1.49.01,3,.12,4.48-.01,2.87-.26,4.1.57,4.04,3.81-.06,3.32-1.55,3.83-4.28,3.68-2.65-.15-5.36.26-7.95-.14ZM456.97,174.35c-1.52.99-3.14,2.25-4.97.98-1.95-1.35-.97-3.63-1.27-5.49-.21-1.28.74-1.73,1.83-1.73,3.69-.03,7.37-.01,12.15-.01-2.69,3.38-5.32,4.69-7.73,6.26ZM462.79,165.62c-2.67.07-2.95-1.36-2.78-3.38.15-1.81-.65-3.97,2.61-4.13,3.57-.17,2.84,2.26,3.03,4.03.46,2.49-.45,3.41-2.85,3.48ZM464.12,155.69c-2.48.1-4.96.02-7.44.02,0,.01,0,.03,0,.04-1.99,0-3.97-.04-5.96.01-1.91.05-2.58-.82-2.57-2.69,0-1.87.67-2.7,2.58-2.68,4.46.05,8.93.03,13.39.03,1.36,0,2.2.5,2.12,2.02-.08,1.51-.01,3.16-2.12,3.24ZM466.6,123.38c-.63,1.78,1.2,5.44-2.62,5.22-2.25-.13-4.16-1.66-4.36-4.49-.22-3.18,1.88-2.83,4.11-2.75,1.03.38,3.87-.8,2.87,2.02ZM467.49,114.98c.39,3.06-.92,4.09-3.94,3.94-3.98-.2-7.98-.1-11.96.02-2.41.07-4.13.01-3.75-3.32.28-2.51.06-4.41,3.66-4.14,5.13.37,14.44-2.21,15.73-1.46,1.3.75.07,3.5.26,4.96ZM465.69,106.76c-3.37-.31-1.67-3.6-2.42-5.48-.43-1.08-.16-2.43,1.52-2.36,3.18.13,1.9,2.79,2.52,4.19-.37,1.52.64,3.85-1.61,3.64ZM459.41,90.52c1.36-1.6,4.62-2.62,6.23.99.62,1.39,1.3,4.61-1.1,5.07-4.24.82-5.58-4.63-5.13-6.07ZM466.94,82.82c-.44,2.66-.31,5.9-4.71,5.19-1.78-.29-3.78.32-3.26-2.77.47-2.8.63-5.51,4.74-4.49,1.23.33,3.73-.96,3.23,2.08ZM469.73,74.77c-.12,1.69-.78,3.26-2.99,3.22-1.33-.02-2.65,0-3.98,0,0-.02,0-.04,0-.05-1.33,0-2.66.09-3.98-.02-1.88-.17-1.68-1.66-1.75-2.98-.08-1.47.65-2.11,2.05-2.12,2.49-.01,4.98-.08,7.47,0,1.39.04,3.35-.38,3.18,1.96ZM526.56,187.44c-.83,1.26-2.29,1.2-3.63,1.14-4.24-.17-7.67-3.22-11.94-3.34-.81-.02-1.64-.53-2.43-.48-2.38.17-5.27.85-5.79,3.04-.73,3.07,2.78,2.78,4.55,3.25,3.62.98,6.85,1.5,7.52,6.36.35,2.52-.65,3.68-1.51,5.61-4.14,9.25-12.12,8.24-21.2,8.59-5.33.21-10.03.03-12.88-7.25-2.4-6.11-8.05-11.12-6.05-18.53,1.89-6.99,4.12-12.65,13.05-12.86,3.46-.08,6.88-1.2,10.34-1.64,3.35-.43,6.59-2.96,10.11-.83,6.71,4.06,15,6.01,18.85,13.91.47.97,1.87,1.74,1.03,3.02Z"/></g></svg>