<?xml version="1.0" encoding="UTF-8"?><svg id="_레이어_2" xmlns="http://www.w3.org/2000/svg" viewBox="0 0 171.24 137.43"><defs><style>.cls-1{fill:#040000;stroke-width:0px;}</style></defs><g id="_레이어_1-2"><path class="cls-1" d="M145.04,91.42c-3.34-.48-3.16-1.88-2.83-4.36.98-7.33,1.85-14.69,1.82-22.1.16-2.7-.45-5.19-1.18-7.82-.9-3.26-1.4-6.68-2.63-9.85-1.07-2.77-1.8-5.78-4.37-7.8-5.05-3.96-10.75-6.25-17.14-5.45-4.3.54-8.39-.23-12.45-.93-11.57-1.98-23.27-2.55-34.9-3.85-4.55-.51-9.25-.68-13.29-3-3.76-2.16-7.59-4.16-11.81-4.91-5.68-1.01-11.41-1.69-16.47,2.55-1.47,1.23-1.98,3-3.55,4.15-7.61,5.6-12.07,13.23-13.35,22.54-1.37,9.91-.24,19.91.31,29.78.62,11.1.97,22.2,1.41,33.3.05,1.37.44,2.23,1.73,2.67,2.58.89,5.1,2.01,7.74,2.66,8.9,2.2,17.86,4.2,26.78,6.33,11.2,2.68,22.36,5.49,33.57,8.1,7.89,1.83,16.11,1.73,23.97,3.84,1.6.43,3.1-.2,4.67-1.08,4.88-2.74,9.22-6.24,13.79-9.4,8.2-5.66,16.82-10.67,25.17-16.1,1.74-1.13,3.23-2.32,3.63-4.65,1.16-6.78-3.42-13.62-10.63-14.65ZM138.31,57.93c.62,2.94-.28,4.52-2.45,5.93-7.99,5.17-16.22,9.99-23.48,16.53-.63-2.53.2-3.97,1.85-5.39,4.96-4.28,10.29-7.99,16.03-11.17,2.79-1.55,5.45-3.35,8.05-5.89ZM129.97,48.41c1.02,1.27,1.96,2.66,2.13,4.38.15.24.28.5.46.71,2.64,3.06.61,4.44-1.92,5.99-5.78,3.54-11.97,6.5-17.08,11.29,1.16-3.67.6-7.73,3.21-10.89-.06-.82.08-1.58.58-2.25.86-3.42,1.87-6.89,4.08-9.61,2.38-2.92,6.19-2.57,8.55.38ZM45.88,37.49c10.14,2.01,20.29,3.94,30.54,5.33,1.32.18,3.08.54,3.27-1.39.17-1.81-1.51-1.94-2.89-2.15-6.55-1.01-13.12-1.93-19.64-3.1-5.36-.96-10.67-2.23-16.66-3.49,3.72-2.01,7.07-2.59,10.71-2.17,12.41,1.42,24.5,4.77,36.95,6,6.5.65,12.94,1.76,19.31,3.22,1.69.39,2.1.74,1.06,2.38-1.33,2.09-2.54,3.01-5.34,2.32-4.81-1.17-9.8-1.61-14.73-2.3-.9-.13-2.22-.57-2.53.68-.3,1.24,1.06,1.43,1.93,1.75,4.52,1.66,9.23,2.47,13.98,3.04,2.09.25,2.33.97,1.42,2.8-2.47,4.97-2.41,5.05-7.89,4.21-17.34-2.67-34.68-5.42-52.02-8.06-3.55-.54-7.14-.99-10.82-.76.04-.48,0-.79.1-1.03,4.72-11.16,2.75-9.33,13.25-7.25ZM95.53,80.08c.16,1.96-.22,2.85-2.6,2.27-5.85-1.43-11.79-2.51-17.68-3.8-.76-.17-2.22.36-1.92-1.36.26-1.47,1.04-2.87,2.62-2.51,6.08,1.42,12.27,2.04,18.43,2.9,1.67.23,1.06,1.55,1.15,2.5ZM94.67,74.69c-5.18-1.28-10.39-2.43-15.58-3.66-1.24-.29-1.99-1.16-2.43-2.32-.9-2.4-2.58-3.46-5.19-3.96-6.98-1.35-13.88-3.12-20.82-4.7-2.1-.48-3.97-.85-5.68,1.41-1.26,1.65-3.45,2.38-5.81,1.98-2.78-.48-5.61-.66-8.39-1.16-2.73-.49-3.61-2.13-2.61-4.65.87-2.17.95-4.52,1.91-6.69.84-1.91,1.7-2.99,3.01-2.44,11.38,1.75,21.88,3.36,32.37,4.98,10.4,1.61,20.78,3.34,31.2,4.78,2.85.39,3,1.41,2.33,3.83-1.04,3.81-3.01,7.41-2.88,11.52.03.91-.27,1.38-1.43,1.09ZM95.11,118.94c.05,2.11-.49,2.46-2.64,2.23-16.98-1.79-33.04-7.57-49.59-11.19-4.66-1.02-9.38-1.82-14.09-2.62-1.3-.22-1.84-.62-1.73-2.03.17-2.12-1.07-4.85.2-6.24,1.33-1.47,3.98.02,6.06.11,9.73.4,19.04,2.88,28.37,5.47,8.92,2.47,17.92,4.7,27.17,5.64.48.05.98.03,1.46.04,1.2.02,2.65.06,2.75-1.46.1-1.63-1.43-2.06-2.69-2.05-3.36.03-6.6-.68-9.83-1.37-5.15-1.09-10.27-2.32-15.4-3.48-6.99-1.84-13.94-3.82-21.12-4.85-4.86-.7-9.73-.65-14.6-.52-1.85.05-2.41-.41-2.15-2.29.32-2.31.45-4.67.41-7-.03-1.74.64-1.93,2.09-1.58,3.51.85,7.03,1.71,10.66,1.69,1.84,0,1.73,1.04,1.69,2.28-.18,5.32-.2,5.58,5.13,6.22,6.43.78,12.28,3.47,18.47,5.01,3.1-.84,4.81-3.53,7.12-5.4,1.02-.83,1.64-1.04,3-.69,4.81,1.21,9.74,1.97,14.57,3.09,4.66,1.09,4.67,1.25,4.65,6.06-.02,4.98-.09,9.96.03,14.93ZM42.73,71.39c.09,1.87-1.34,1.25-2.29,1.08-3.55-.64-7.07-1.46-10.64-1.98-1.92-.28-2.34-1.14-2.21-2.91.17-2.21,1.77-.8,2.52-1.32,3.79.54,7.45,1.11,11.12,1.57,2.69.33,1.43,2.28,1.49,3.58ZM64.98,95.91c.09,1.14-.87.67-1.48.47-5.38-1.74-10.79-3.3-16.43-3.95-1.03-.12-1.83-.51-1.7-1.86.65-6.76-.19-13.58,1.01-20.32.18-.99.23-1.8,2.04-1.11,5.6,1.03,11.72,2.16,17.85,3.27,1.33.24,1.61.85,1.4,2.23-.78,4.98-1.23,10.01-1.34,15.05-.05,2.15-1.52,3.97-1.35,6.22ZM70.22,69.75c-6.98-1.37-13.84-2.73-20.7-4.04-.95-.18-1.41-.54-1.17-1.54.23-.96.97-.85,1.62-.69,6.87,1.71,13.74,3.43,20.72,4.71.64.12,1.14.45.89,1.18-.27.79-.97.37-1.36.39ZM19.06,41.92c3.17-6.11,7.56-11.1,14.2-13.69.54-.21,1.08-.48,1.65-.57.56-.1,1.16-.02,2.38-.02-10.29,8.17-12.51,19.43-14.46,30.84-.49,2.91-.43,5.8-.32,8.7.05,1.34-.34,1.43-1.46,1.27-4.11-.59-5.26-2.27-5.53-6.65-.43-6.95.32-13.65,3.54-19.87ZM106.66,131.53c-.18,1.73-1.49.99-2.23.87-5.01-.79-9.99-1.77-15-2.58-15.08-2.43-29.42-7.81-44.29-11.09-8-1.76-15.94-3.83-23.93-5.64-2.1-.48-2.95-1.27-3.04-3.62-.48-12.27-.61-24.58-2.41-36.77-.28-1.87.16-2.13,1.9-1.69,7.56,1.92,15.08,4.01,22.86,5,3.7.47,1.53,3.6,1.7,5.44.21,2.22-1.63.92-2.5.74-5.25-1.08-10.48-2.29-15.73-3.43-.85-.19-1.74-.29-2.61-.31-.63-.02-1.48-.23-1.77.6-.3.86.42,1.23,1.05,1.48,1.34.52,1.17,1.65,1.16,2.7-.06,4.88-.23,9.77-.17,14.65.04,3.31.4,6.61.62,9.92.07,1.11.58,1.8,1.77,1.95,6.93.88,13.69,2.63,20.47,4.23,12.72,3.01,25.35,6.4,38.06,9.41,3.77.89,7.71,1.13,11.58,1.54,2.18.23,4.41-1.98,4.45-4.37.08-3.71.02-7.42.02-11.13,0,0-.01,0-.02,0,0-3.52,0-7.03,0-10.55,0-.29-.16-.67-.03-.86,2.64-4-.93-4.16-3.11-4.62-7.35-1.54-14.77-2.77-21.97-4.97-1.56-.48-2.78-5.52-1.54-6.57.29-.24.92-.21,1.36-.12,10.49,2.25,20.98,4.54,31.47,6.78.94.2,1.63.29,1.4,1.59-1.28,7.24.34,14.37.91,21.54.53,6.63.25,13.26-.42,19.87ZM107.34,69.84c-.69,4.52-1.17,9.08-1.77,13.61-.04.34-.26.93-.41.93-1.79.07-3.46-.54-5.11-1.09-1.3-.43-.78-1.69-.7-2.55,1.33-13.62,4.28-26.67,12.79-37.92,4.31-5.7,8.38-6.96,15.25-3.91-.23.26-.28.37-.36.4-14.47,5.09-17.69,17.43-19.69,30.52ZM137.37,103.52c-.06.76,0,1.59-.69,2.17-4.57,3.82-7.28,9.41-12.35,12.81-4.58,3.08-7.24,8.16-11.53,11.59-.59.47-.9,1.28-1.33,1.93-.33-.14-.66-.27-1-.41,0-1.47-.15-2.95.02-4.4,1.1-9-.21-17.91-1.01-26.83-.32-3.61-.18-7.21-.34-10.82-.08-1.83,1.28-2.79,2.41-3.8,5.32-4.75,10.87-9.21,16.94-13,4.19-2.62,8.29-5.38,12.73-8.27-1.68,13.23-2.75,26.13-3.86,39.02ZM13.29,35.4c-4.14,2.58-6.08-.61-8.41-2.96-1.09-1.1-2.24-2.18-3.47-3.12-1.92-1.47-1.35-3.47-1.24-5.34.04-.72.78-1.06,1.53-1.08.87-.03,1.44.48,1.97,1.08,2.9,3.32,6.15,6.2,10.14,8.19.86.43,1.88,1.09,1.65,2.16-.2.96-1.52.66-2.16,1.06ZM125.76,25.71c.14-2.24,1.34-3.68,2.94-5.04,2.67-2.27,5.25-4.65,7.84-7.01.79-.72,1.65-1.05,2.67-.67.7.26,1.03.85,1.02,1.46-.07.98-.64,1.55-1.08,2.18-2.83,4.1-7.01,6.96-10.02,10.9-.67.87-1.64,1.5-2.8.76-1.03-.65-.63-1.59-.57-2.59ZM171.17,50.51c.41,1.58-1.02,2.06-2.18,2.61-2.98,1.41-5.96,2.82-8.88,4.35-1.1.58-2.13.87-3.26.5-1.29.13-2.72.6-3.18-1.15-.42-1.59.9-2.15,1.95-2.85,3.69-2.48,7.78-3.95,12.14-4.65,1.3-.21,2.95-.62,3.42,1.19ZM92.14,19.32c1.49-4.53,2.62-9.67,5.26-14.26.57-.99,1.48-1.32,2.49-.86,1.07.48,1.29,1.51.86,2.48-2.01,4.57-2.84,9.49-4.23,14.24-.33,1.13-.94,2.14-2.24,1.72-1.27-.41-2.62-1.06-2.15-3.33ZM58.55,8.22c0-2.04,0-4.08,0-6.13,0-.93.23-1.78,1.28-2.03,1.15-.27,1.94.32,2.26,1.35,1.51,4.78,1.53,9.77,1.97,14.69.12,1.3-.9,1.78-2.18,1.71-1.2-.07-2.52.4-2.94-1.46-.61-2.71-.2-5.43-.39-8.14ZM19.01,5.53c-.36-.92.08-1.75.96-2.21.95-.5,1.8-.08,2.32.67,2.75,3.97,4.29,8.51,5.85,12.79.14,1.2-.22,1.98-1.12,2.37-.96.42-1.82,0-2.26-.81-2.22-4.13-4.05-8.43-5.74-12.8ZM116.77,59.89c-.06-.82.08-1.58.58-2.25,3.27-2.29,6.48-4.68,10.04-6.54.88-.46,1.79-.9,2.76-.26,1.13.75.61,1.68.21,2.58-3.36,2.1-6.7,4.24-10.09,6.29-1.07.64-2.25,1.82-3.5.18ZM115.51,88.88c-1.79,2-2.48,4.06-2.4,6.6.16,5.37.95,10.7.62,16.79,0,2.02.01,4.76,0,7.49,0,1.13.04,2.24,1.38,2.57,1.16.28,1.78-.51,2.26-1.43,1.5-2.83,3.73-5.06,6.33-6.8,4.35-2.92,7.92-6.63,11.41-10.47,1.14-1.25,1.5-2.53,1.48-4.23-.07-4.97.12-9.94.6-14.89.37-3.76,1.63-7.47.99-11.3-.43-2.55-1.58-2.86-3.52-1.11-2.03,1.83-3.97,3.78-6.11,5.46-4.54,3.55-9.15,6.97-13.03,11.31ZM119.71,101.96c.19-.77.38-1.55.57-2.32.15-4.85.69-9.57,5.18-12.59,2.98-2,5.86-4.11,8.88-7.17-1.23,7.08-1.28,13.52-1.29,19.96,0,.33-.29.66-.45,1-3.65,5-8.4,8.77-13.86,12.4-.21-4.02.19-7.66.96-11.27ZM60.8,77.16c1.39,2.31.94,4.46-1.67,5.88-1.44.79-1.88,1.61-1.85,3.15.03,1.44-.17,2.93-.56,4.32-.37,1.31-1.47,2.17-2.88,2.02-1.49-.16-1.67-1.41-1.66-2.66,0-.98,0-1.95,0-2.93-.08-2.08.2-4.04-1.36-6.01-1.55-1.97-.46-4.83,1.62-5.98,3.01-1.65,6.61-.71,8.35,2.19ZM119.71,101.96c.19-.77.38-1.55.57-2.32,2.28-3.44,5.5-5.88,8.69-8.37,1-.78,2.04-1.86,3.29-.81,1.36,1.15.07,2.23-.48,3.27-3.18,2.33-6.53,4.47-9.23,7.39-.83.89-1.71,1.17-2.84.83Z"/></g></svg>