<?xml version="1.0" encoding="UTF-8"?><svg id="_레이어_2" xmlns="http://www.w3.org/2000/svg" viewBox="0 0 299.85 181.08"><defs><style>.cls-1{fill:#040000;stroke-width:0px;}</style></defs><g id="_레이어_1-2"><path class="cls-1" d="M284.16,90.42c-11.08-14.11-25.03-23.41-42.76-27.22-8.33-1.79-16.27-2.23-24.04,1.69-1.18.59-1.99.86-2.39-.79-1.7-6.99-5.34-13.43-5.31-20.95.05-12.63-5.05-23.4-13.23-32.77-4.1-4.7-7.67-3.9-9.94,2.05-3.72-2.81-6.92-6.33-11.36-8.04-2.54-.98-5.18-1.31-7.22,1.01-1.83,2.08-1.03,4.33,0,6.52,1.57,3.34,3.27,6.64,4.64,10.06,2.2,5.51,2.1,5.53-3.58,6.67-1.75.35-3.47.84-5.22,1.17-2.46.46-4.11,1.69-4.02,4.35.09,2.65,1.86,3.97,4.29,4.09,2.62.13,4.78,1.24,6.78,2.67,2.78,1.99,5.24,4.49,8.18,6.19,3.82,2.21,5.55,5.44,6.32,9.54,1.49,7.95,1.74,16.04,2.88,24,2.15,15.04-3.19,21.89-15.72,29.27-3.46,2.04-4.3,1.37-4.02-2.52,1.04-14.78.77-29.56.31-44.35-.04-1.34.22-2.93-1.54-3.4-1.65-.44-2.43.94-3.29,1.97-3.64,4.33-6.54,9.15-8.85,14.28-.99,2.2-1.76,2.21-3.84,1.22-7.73-3.68-15.64-5.41-23.39,0-2.05,1.43-2.67-.12-3.42-1.34-3.67-5.94-7.54-11.75-11.92-17.21-.9-1.12-1.33-3.11-3.27-2.44-2.16.75-1.26,2.72-1.12,4.27,1.03,11.45,3.21,22.77,3.77,34.29.15,2.98-1.37,5.15-3.42,5.88-1.76.62-3.5-1.45-4.15-3.65-4.25-14.41-8.43-28.59-6.18-44.17,1.07-7.37,4.65-10.12,10.45-12.2,3-1.07,6.1-1.53,9.29-1.37,2.13.11,4.31.06,4.8-2.66.46-2.57-1.4-3.69-3.35-4.53-3.18-1.36-6.01-3.21-8.71-5.48,2.15-2.42,5.12-3.31,7.66-4.85,2.06-1.25,3.88-2.6,3.67-5.42-.21-2.81-2.26-3.99-4.39-4.92-4.23-1.83-8.81-2.11-13.31-2.12-2.25,0-2.58-.59-2.91-2.57-.93-5.61-5.51-8.15-10.68-5.77-9.59,4.41-16.4,11.32-18.51,22.05-.79,4.02-1.29,8.15-3.13,11.86-3.66,7.42-5.37,15.21-4.8,23.44.16,2.36-.63,3.45-2.91,4-12.38,3.01-22.93,9.56-32.95,17.14-11.86,8.98-22.19,19.18-27.57,33.46-1.65,4.37-.85,5.44,3.82,4.87,8.79-1.07,16.68-4.22,23.57-9.87,4.31-3.53,9.15-6.23,14.36-8.45-1.32,2.22-2.85,4.22-4.43,6.16-8.32,10.19-14.37,21.64-18.82,33.96-.58,1.61-1.48,3.51.21,4.97,1.55,1.34,3.38.74,5.06.06,1.01-.41,2.04-.85,2.94-1.46,7.28-4.88,14.88-9.27,21.91-14.55,4.88-3.66,10.07-6.91,16.09-11.01-.82,1.88-1.18,2.71-1.54,3.54-4.4,10.07-7.77,20.47-10.36,31.13-.52,2.13-.66,4.42,1.36,6.07,2.06,1.68,4.15.85,6.19-.05,4.68-2.06,8.84-4.95,12.84-8.09,3.62-2.85,7.23-5.71,11.07-8.74.84,4.85.83,9.33,2.45,13.13,2.5,5.87,1.57,11.38.28,17.11-1.05,4.66-.03,5.93,4.66,6.72,26.73,4.52,53.66,2.01,80.5,2,10.09,0,10.14-.92,8.65-11.33-.8-5.59-1.15-11.25-1.75-17.46,3.93,1.8,7.12,3.32,10.36,4.74,7.28,3.19,14.48,6.66,22.21,8.63,6.59,1.68,9.11-.91,7.27-7.21-1.71-5.83-4.73-11.06-7.91-16.19-.94-1.52-1.84-3.05-3.23-5.34,7.29,2.02,13.46,3.81,19.67,5.43,10.57,2.76,21.28,4.26,32.19,2.61,6.68-1.01,7.78-2.83,4.65-8.72-4.46-8.4-8.88-16.86-14.45-24.63,1.85-.7,3.31.29,4.85.77,11.91,3.72,24.3,3.9,36.57,4.87,3.1.24,6.04-1.18,7.42-4.26,1.39-3.1-.93-5.16-2.68-7.22-4.17-4.91-8.63-9.58-12.6-14.64ZM146.56,101.89c1.96-3.88,4.1-7.66,6.17-11.49,1.28-2.36,2.87-2.49,4.33-.3,1.76,2.65,2.76,5.61,2.69,9.85-.02,4.95-3.33,9.16-8.19,9.43-4.68.25-7.12-3.31-5-7.49ZM120.42,90.65c5.49,3.61,10.46,8.08,13.62,13.86,1.62,2.97-1.57,2.91-3.3,3-8.86-.16-12.54-6.49-14.53-13.56-.78-2.77,1.86-4.85,4.22-3.3ZM159.68,127.51c-.76,1.96-2.82,1.32-3.92-.29-.84-1.22-1.34-2.68-2.1-4.26-1.84,1.14-2.35,3.16-3.42,4.76-1.86,2.79-3.68,2.92-5.82.38-.61-.73-1.08-1.58-1.68-2.32-1.19-1.46-1.87-4.05-3.66-4.1-1.75-.04-1.78,2.67-2.68,4.11-1.43,2.28-3.01,2.74-4.74.32-1.41-1.98-2.75-4-4.39-6.41-1.08,2.49-1.87,4.51-2.83,6.44-1.62,3.26-3.83,3.63-5.84.73-2.33-3.35-5.66-6.39-5.04-11.71,2.7,2.28,5.04,4.25,7.67,6.46.93-1.69,1.65-3.24,2.58-4.65,1.62-2.44,3.47-2.76,4.89.11.71,1.44,1.86,2.24,2.95,3.25,1.33,1.22,1.91,1.27,3-.4,3.4-5.21,4.91-5.25,9.32-.7.94.97,1.86,1.98,3.12,3.33,1.1-2.03,1.94-3.59,2.79-5.14.62-1.12,1.44-2.04,2.85-2.04,1.78,0,1.49,1.68,2.02,2.66.32.58.4,1.3.52,1.98.17.88.58,1.62,1.5,1.71,1.14.11,1.86-.68,1.98-1.68.24-1.96.92-3.62,3.01-5.45.27,4.82-.56,9.01-2.08,12.91Z"/><path class="cls-1" d="M116.79,43.28c-1.14.92-1.09,2.23-.68,3.39.49,1.41,1.17,2.79,1.99,4.04,2.1,3.2,4.61,6.2,5.67,9.94.62,2.19,1.92,2.51,3.91,2.64,6.95.47,14,.46,20.51,3.62,2.3,1.11,3.94.26,4.86-2.12,1.97-5.1,3.97-10.19,5.99-15.28.51-1.28,1.23-2.55,0-3.79-1.4-1.41-2.73-.56-4.11.13-2.73,1.36-4.88,3.8-8.03,4.58-.32-3.54-.64-6.81-.9-10.08-.12-1.55-.21-3.14-2.03-3.62-2.04-.53-3,.96-3.77,2.45-1.39,2.69-2.68,5.43-4.38,8.9-1.13-2.83-1.86-4.73-2.66-6.6-.61-1.43-1.43-2.82-3.28-2.55-1.58.23-2.14,1.53-2.4,2.96-.37,2-.76,4-1.23,6.5-2.23-1.83-4.06-3.46-6.03-4.88-.99-.72-2.24-1.18-3.43-.22Z"/></g></svg>